<svg width="2500" height="2500" viewBox="0 0 2500 2500" xmlns="http://www.w3.org/2000/svg"><path d="M1126.331 1618.397c118.847 0 198.601-63.518 198.601-63.518v55.576h131.066V1171.39c-.93-277.896-170.158-406.494-398.24-406.494-245.926 0-388.946 142.146-388.946 142.146l69.115 117.844s113.238-95.297 274.908-95.297c114.153 0 160.774 58.825 160.774 135.539v50.536l-197.234 9.38c-237.525 11.233-288.96 138.384-288.96 230.144-.001 163.702 129.083 263.209 440.916 263.209zm52.417-124.364c-94.502 0-143.957-43.012-143.957-101.921 0-77.568 62.645-103.784 179.48-109.43l110.662-5.597v81.33c0 98.204-74.839 135.618-146.185 135.618zM1875.871 784.77l-157.091 803.954h141.17l28.995-179.529h.938l80.407 179.529h148.653l138.39-803.954h-143.037l-78.539 607.566h-1.875l-92.576-607.566h-135.556l-85.112 607.566h-1.875l-84.15-607.566h-158.741zM625.592 1442.279l-49.523-289.845h-1.867l-51.42 289.845h102.81zm-92.536 146.445l-28.061 176.436H351.481l144.921-803.954h168.293l145.85 803.954H657.382l-29.932-176.436H533.056zM1588.601 1845.54c-17.758 10.748-154.27 91.176-476.425 91.176-378.146 0-562.9-106.845-623.501-144.17l-57.971 113.125c40.098 23.492 237.498 135.58 678.69 135.58 297.889 0 472.951-76.355 519.825-97.94l-40.618-97.771zm57.771 73.181s-13.882-70.626 53.64-58.106c52.016 9.648 185.116 112.441 185.116 112.441s-133.504-12.729-183.155-25.215c-42.336-10.654-55.601-29.12-55.601-29.12z" fill="#232F3E"/></svg>
